PathFileType	4	(X/Y/Z)	63_2_60_p0_0-182.trc
DataRate	CameraRate	NumFrames	NumMarkers	Units	OrigDataRate	OrigDataStartFrame	OrigNumFrames
60.0	60.0	6	27	m	60.0	22	183
Frame#	Time	RHip			RKnee			RAnkle			RBigToe			RSmallToe			RHeel			LHip			LKnee			LAnkle			LBigToe			LSmallToe			LHeel			Neck			Head			Nose			RShoulder			RElbow			RWrist			RThumb			RIndex			RPinky			LShoulder			LElbow			LWrist			LThumb			LIndex			LPinky			
		X1	Y1	Z1	X2	Y2	Z2	X3	Y3	Z3	X4	Y4	Z4	X5	Y5	Z5	X6	Y6	Z6	X7	Y7	Z7	X8	Y8	Z8	X9	Y9	Z9	X10	Y10	Z10	X11	Y11	Z11	X12	Y12	Z12	X13	Y13	Z13	X14	Y14	Z14	X15	Y15	Z15	X16	Y16	Z16	X17	Y17	Z17	X18	Y18	Z18	X19	Y19	Z19	X20	Y20	Z20	X21	Y21	Z21	X22	Y22	Z22	X23	Y23	Z23	X24	Y24	Z24	X25	Y25	Z25	X26	Y26	Z26	X27	Y27	Z27	
22	0.36666666666666664	0.3242716506026996	0.5972070304442965	0.7822208528404839	0.3381154224288734	0.7413272853786541	1.178206208812239	0.3337977828593821	0.936951674232071	1.5818540433049058	0.3173926860751224	0.6881875951318116	1.6127610835376331	0.37812767747706155	0.7227491369162233	1.6117481504643878	0.3230120754573906	0.9834585500343703	1.6283412695488682	0.13726233772292273	0.5460616744645523	0.7937815807438369	0.143801404825857	0.7093763932174713	1.171634755050156	0.16293069872943358	0.8768993704799939	1.562696924397577	0.15087234640643876	0.6652407674163138	1.5974298151196344	0.09775422082149673	0.710656404078948	1.5952362642281963	0.1893546451076213	0.9793854452112017	1.6385244404004033	0.1969637719914051	0.3921552644497858	0.2309404982476778	0.19480712872055314	0.29246099990772784	0.004283219021639912	0.1897644797678365	0.27472236645083714	0.1377675129997138	0.34356711191560935	0.41615558093004407	0.31894477758060286	0.3625079124132746	0.45351238355412715	0.5835449989431576	0.2651381714055391	0.4199376848714359	0.7672804859701159	0.1907059179544919	0.4452967898551514	0.856058559379904	0.19058425823580105	0.44765415823930915	0.8604235725262177	0.20635493518048845	0.45044979716620126	0.8672076783878088	0.048118853079784966	0.4528883951141406	0.3177345388580705	0.0409381731360973	0.4590551411289857	0.5971004857517495	0.1719397022241879	0.42595659753900056	0.7727245563823282	0.23875895910667488	0.4690369611690528	0.833804417279029	0.2441433738589818	0.490481510010567	0.8647789273978883	0.21026675566132846	0.4533223742588065	0.8678439049926635
23	0.38333333333333336	0.3239036095657259	0.5986646537813328	0.7860320096426242	0.3334518717038158	0.7404323399358884	1.178441722229292	0.33381551929008946	0.9369665850424783	1.5818441728193726	0.31729478195659044	0.6877863672971459	1.6127782874433807	0.37805653711426784	0.7226211338317922	1.6117566797978389	0.3229913228396542	0.9834356208039833	1.6283417678491796	0.13723035539802336	0.5460652982036097	0.7937887242456553	0.1437083606752711	0.7093374382594874	1.171681142997823	0.16287678757215385	0.876849218308922	1.562714368303542	0.14759255954139633	0.6807675539913248	1.6024821624606114	0.09770763847920723	0.7106092101001555	1.5952389335692463	0.18922089764590497	0.9789291284086318	1.6383044993651623	0.19293007283585104	0.39193029831945636	0.23123062038363343	0.19472446422125486	0.29178321348655323	0.0012328629964565286	0.18976233882861407	0.2745582391432547	0.1377654616828165	0.34350150001938884	0.4159938000820772	0.31895204051006404	0.36248017607715793	0.45345605543955314	0.5835050541251423	0.265145270711855	0.41987133473912813	0.7673049553016786	0.19058849863410912	0.44537241458187277	0.8561766345350519	0.1905046450873428	0.44766659988486446	0.860419351689266	0.20646569931754458	0.4505580951997954	0.8672368677869492	0.04813846968934583	0.4528458629714591	0.3177350174104288	0.040935081141676315	0.4590762245697476	0.5970969918627044	0.17195400970199085	0.4260771519276593	0.7726971707403564	0.23868923942421016	0.4689454973534251	0.833736755639494	0.24414101023243456	0.4905351456297516	0.8647527425856104	0.210305822266032	0.4533103581212863	0.8678266262101542
24	0.4	0.3238393892548394	0.599017068753943	0.7861654316327706	0.3328213523411701	0.7360230632915363	1.1691608913287304	0.3338052108200367	0.936628798598334	1.5817284557250415	0.317742982108011	0.6892591716841492	1.6126519042041503	0.3769137240433888	0.722612938587305	1.6027889169075196	0.32296686582993883	0.9830774834070116	1.6283131473523862	0.13724181863234172	0.5461794397191273	0.7937464620612785	0.14211138207416285	0.7070892898636901	1.1627500561410486	0.16311763207702137	0.8770937430829474	1.5626307730847986	0.14750946817449612	0.6807797415343807	1.6024990600014533	0.09774806752120244	0.7108606212663638	1.5952637924407551	0.1897116542388423	0.9798294336478262	1.638642736065661	0.1928808638901864	0.3918604474054438	0.2311680479264284	0.19467974383074035	0.2916983503167123	0.001163519742871316	0.18973405605375984	0.27446850081398044	0.13773874266802955	0.3434068670704619	0.41599598097096363	0.3189620769669786	0.36244584682315867	0.45371465096590635	0.5836041177714444	0.26515132663179053	0.4198621127765636	0.7672908863456717	0.1905886347218766	0.44546329597894174	0.8562450481058984	0.1904656609347091	0.4477930515208381	0.8604246511002926	0.20656337673377784	0.4506284296467242	0.8671500789957918	0.048121687182716914	0.45273458173116166	0.31766158496649805	0.040960834007585344	0.4589212403098437	0.5971152312455634	0.17196096297605856	0.42607953358624573	0.7727148227431441	0.23861621939408909	0.4685084696708371	0.8337557557606304	0.24408649253213013	0.4903843894083829	0.8647114882750475	0.21081842730658804	0.45221514509216687	0.8638710506612604
25	0.4166666666666667	0.32386340393173807	0.5989581927390182	0.7861254630695024	0.332848868666597	0.7360499366236308	1.169092291373736	0.3338051310069269	0.9366303221722231	1.5817640230340655	0.3175199001545625	0.6883672174557611	1.612664846266465	0.3819507213436317	0.7348137597125449	1.6112197119597529	0.3229841022991224	0.983084985516875	1.628269757542409	0.13730957073323197	0.5462247193301596	0.7937493992020968	0.14225639681432223	0.7072390868402527	1.1628152848239903	0.16301234998652755	0.8768082560710845	1.5625922679878326	0.1468169144305433	0.6504541683643139	1.592891653928736	0.09775781611300366	0.710187946624957	1.5950107548839165	0.1896839545668202	0.9797365794967868	1.638669683235682	0.19290110463643934	0.3919002739572548	0.23117330189188617	0.19467807455768063	0.29170421437501165	0.0011697354516054417	0.189722492615105	0.27453955431615024	0.13772756582295248	0.3434227621069872	0.4159921570157961	0.3189571534698807	0.36236358105221467	0.45359166628125713	0.583563603296673	0.26511996440013064	0.41978991852786657	0.7673074126443701	0.19060794191225475	0.4453418621978607	0.8561869298616861	0.18661484097937914	0.43533004332393654	0.8595600424274297	0.2064868472512899	0.45037832110083403	0.8671879082505652	0.04811217423924864	0.45280735076261863	0.31766726974885373	0.04092666899071165	0.4589065344158446	0.5971330548005804	0.17194772227832666	0.42604213394603413	0.7727336799093013	0.23863771571442322	0.46847741375893653	0.8336555779478256	0.2441362015486549	0.4903990366552595	0.8647521618739472	0.21075070391605857	0.45207626643722487	0.8639944121336476
26	0.43333333333333335	0.32386243568321105	0.5989988594434568	0.7862525831753767	0.3323042028537279	0.7378224021379782	1.1737204557426058	0.3338027006262846	0.9366005890235729	1.5817162127174424	0.31730739544135134	0.688109127914745	1.6127966594324281	0.3815257751699466	0.7357855068255781	1.6069833430305716	0.3229321239580959	0.9830275821932483	1.6280790338704656	0.1372910847546255	0.5462714564188953	0.7937691312794132	0.14223803799913834	0.7073394491172497	1.162832692303829	0.16301182651596985	0.8769172344130707	1.562623548713205	0.15081696132493458	0.6652799124372196	1.5974408044490338	0.09781173375692243	0.7104803905315479	1.5951220588842303	0.18953852310698996	0.9796198399203283	1.6385800130871933	0.19289184320999	0.3919302357407135	0.23115672794021336	0.19467305921606154	0.29170883153494737	0.001174614161906566	0.18676932243875605	0.2866920642853608	0.13597070716469523	0.34341648601387464	0.4160228290028583	0.3189544304097975	0.36242774564379954	0.45378277815877155	0.5836414103511585	0.26091914725843973	0.40724646198775394	0.7668894234247415	0.19385560388334497	0.4326956814139698	0.8550684217064505	0.19083739715432668	0.4478510281403856	0.8605768853062308	0.20665319581892	0.45093375959676235	0.8672002754470598	0.04811368065027441	0.4528312425223942	0.3176670733244901	0.04089634452474657	0.45881158471670597	0.5971519313164296	0.17194709129164176	0.4259835026007724	0.7727990308446808	0.23963726324621168	0.47081960827459096	0.837081913708126	0.24416481692061692	0.4903964476124092	0.8648281383833148	0.2104792224406811	0.45365582254847464	0.8679069308478222
27	0.45	0.3192101189440717	0.5857011480684782	0.7856604240897316	0.33692269672279457	0.7387214455682057	1.173537171657541	0.33383890682083234	0.9366874425330426	1.5817217040622464	0.31734095664836554	0.6881690801577712	1.612820546605891	0.38162852047386825	0.7359392563071055	1.607011461435045	0.32297500227842707	0.983199813723741	1.6279876612666344	0.13723276008451551	0.5462136820463886	0.7937557216239434	0.14212018619451067	0.707154960291095	1.1627394516952452	0.1630291090660981	0.8768326570814111	1.5625443931222147	0.1508694290472397	0.6652156691953197	1.5974414214753156	0.09777732494986723	0.7103235356561011	1.5950745084161595	0.18956287927779156	0.9798174936774859	1.6385965488697358	0.196859262407812	0.3921140950083959	0.23081579890269277	0.19474547774776832	0.2923642015123747	0.004248353741900087	0.1867131587270137	0.28693681206336685	0.13597869588721145	0.3433478895587192	0.41588944636694725	0.3189571804091637	0.3624405516203494	0.4536734338926801	0.5835461215148028	0.2651176369232947	0.4196421382636472	0.767344351932495	0.19387645229851383	0.4326099207793987	0.8550355997838008	0.1908443379314623	0.44791976562191865	0.8606331372188352	0.20659160828262382	0.450806123991284	0.8672212130623924	0.04810340141909339	0.45291231417918026	0.31758700059500033	0.040892985763022985	0.4586872238578327	0.5971640690096	0.1719026696292952	0.4259817785540871	0.7727840066937971	0.23889114519278243	0.4688811715724497	0.8339460606373652	0.24417909792074943	0.49041937690715715	0.8647607161300693	0.21089778909737736	0.4525400851594717	0.8640011979719846
